<?xml version="1.0" encoding="utf-8"?>
<!-- Generator: Adobe Illustrator 22.0.1, SVG Export Plug-In . SVG Version: 6.00 Build 0)  -->
<svg version="1.1" id="Слой_1" xmlns="http://www.w3.org/2000/svg" xmlns:xlink="http://www.w3.org/1999/xlink" x="0px" y="0px"
	 viewBox="0 0 498 126.9" style="enable-background:new 0 0 498 126.9;" xml:space="preserve">
<style type="text/css">
	.st0{fill:url(#SVGID_1_);}
	.st1{enable-background:new    ;}
	.st2{fill:currentColor;}
	.st3{fill:none;}
	.st4{fill:#fff;}
</style>
<g>
	
		<radialGradient id="SVGID_1_" cx="63.7253" cy="893.975" r="61.4" gradientTransform="matrix(1 0 0 1 0 -829.5)" gradientUnits="userSpaceOnUse">
		<stop  offset="0" style="stop-color:#e30613"/>
		<stop  offset="0.1058" style="stop-color:#e30613"/>
		<stop  offset="0.3917" style="stop-color:#e30613"/>
		<stop  offset="0.6862" style="stop-color:#e30613"/>
		<stop  offset="1" style="stop-color:#e30613"/>
	</radialGradient>
	<circle class="st0" cx="63.7" cy="64.5" r="61.4"/>
	<g class="st1">
		<path class="st4" d="M28,86.3V42.6h11.6c1,0,2,0,3.1,0.1c1,0.1,2,0.2,3.1,0.3c1,0.2,2,0.3,2.9,0.5c0.9,0.2,1.8,0.4,2.6,0.7
			c2.3,0.8,4.4,1.7,6.2,3s3.3,2.7,4.5,4.5c1.2,1.7,2.1,3.7,2.7,5.8c0.6,2.1,0.9,4.4,0.9,6.9c0,2.4-0.3,4.6-0.8,6.6
			c-0.5,2-1.3,3.9-2.4,5.6c-1.1,1.7-2.4,3.2-4,4.5c-1.6,1.3-3.6,2.4-5.8,3.1c-1.9,0.7-3.9,1.2-6.3,1.5s-5,0.5-7.9,0.5L28,86.3
			L28,86.3z M39.3,79.6c4.7,0,8.3-0.7,11-2c2.3-1.2,4.1-2.8,5.3-5s1.8-5,1.8-8.4c0-1.8-0.2-3.4-0.6-4.8s-0.9-2.7-1.7-3.8
			c-0.8-1.1-1.6-2.1-2.7-2.9c-1-0.8-2.2-1.4-3.6-2c-1.3-0.5-2.6-0.9-4.2-1c-1.5-0.3-3.2-0.3-5.1-0.3H36v30.3L39.3,79.6L39.3,79.6z"
			/>
		<path class="st4" d="M96.8,64.3c0,1.5-0.3,3.1-0.9,4.3c-0.6,1.3-1.5,2.6-2.6,3.9c-1.1,1.3-2.5,2.5-4,3.7c-1.5,1.2-3.2,2.4-5,3.7
			V80c3-0.2,5.3-0.3,6.7-0.3h8.6v6.5H71.7v-4.8c2.3-1.5,4.4-3.1,6.5-4.6c2-1.5,3.9-3,5.4-4.3c1.5-1.4,2.8-2.7,3.7-4s1.4-2.6,1.4-3.8
			c0-0.8-0.2-1.4-0.4-2c-0.3-0.5-0.7-0.9-1.2-1.3S86,61,85.4,60.8c-0.7-0.2-1.4-0.3-2.2-0.3c-1.5,0-3.3,0.3-5.2,0.8
			c-1.9,0.5-3.8,1.3-5.9,2.2V57c0.7-0.3,1.4-0.8,2.4-1.1c0.9-0.3,1.9-0.7,2.9-1c1-0.3,2.1-0.5,3.3-0.7c1.2-0.2,2.4-0.3,3.6-0.3
			c1.9,0,3.6,0.3,5.1,0.7c1.5,0.4,2.9,1.1,4,2c1.1,0.9,2,2,2.6,3.2C96.7,61.2,96.8,62.7,96.8,64.3z"/>
	</g>
	<polygon class="st3" points="235,-35.2 232.2,-35.2 232.2,-35.2 	"/>
	<g>
		<path class="st2" d="M142.3,38h7.1v51.1h-7.1V38z M146.5,82.5h13.9c3.6,0,6.3-0.7,7.9-2.1c1.7-1.4,2.5-3.3,2.5-5.8v-0.1
			c0-1.7-0.3-3.2-0.9-4.5c-0.6-1.2-1.5-2.2-2.8-2.9s-2.9-1-5-1h-15.6v-6.5h15.6c2.6,0,4.6-0.6,6-1.9c1.3-1.2,2-3.1,2-5.5
			c0-2.6-0.8-4.5-2.3-5.7s-3.8-1.9-6.8-1.9h-14.6V38h15.9c3.3,0,6.1,0.6,8.3,1.7s3.9,2.7,5,4.8s1.7,4.5,1.7,7.4c0,1.8-0.3,3.4-1,4.9
			s-1.7,2.8-3.1,3.9s-3.1,1.8-5.2,2.2c2.1,0.3,3.8,1,5.3,2.2c1.5,1.2,2.6,2.6,3.4,4.3c0.8,1.7,1.2,3.6,1.2,5.6v0.1
			c0,2.8-0.6,5.2-1.8,7.3s-3,3.7-5.2,4.9c-2.3,1.1-4.9,1.7-7.9,1.7h-16.5L146.5,82.5L146.5,82.5z"/>
		<path class="st2" d="M188.1,52.6h7.2v36.5h-7.2V52.6z M205.8,59.5c-1-0.4-2.1-0.6-3.3-0.6c-2.3,0-4,0.6-5.3,1.9
			c-1.3,1.3-1.9,3-1.9,5.2l-0.7-7c1.1-2.2,2.6-3.9,4.4-5.1c1.8-1.2,3.8-1.8,5.9-1.8c1.7,0,3.2,0.2,4.5,0.7s2.5,1.2,3.5,2.1l-4.7,6.3
			C207.5,60.5,206.7,59.9,205.8,59.5z"/>
		<path class="st2" d="M224,87.8c-2.3-1.2-4-3.1-5.2-5.4c-1.2-2.4-1.8-5.2-1.8-8.6v-5.9c0-3.3,0.6-6.1,1.8-8.5s2.9-4.1,5.2-5.4
			s5-1.8,8.1-1.8s5.9,0.6,8.1,1.8s4,3,5.2,5.4s1.8,5.2,1.8,8.5v6c0,3.3-0.6,6.2-1.8,8.5s-2.9,4.2-5.2,5.4c-2.3,1.2-5,1.9-8.1,1.9
			S226.2,89,224,87.8z M237.9,80.5c1.4-1.6,2.1-3.8,2.1-6.6v-6c0-2.8-0.7-5-2.1-6.6s-3.3-2.3-5.8-2.3s-4.4,0.8-5.8,2.3
			s-2.1,3.7-2.1,6.6v6c0,2.8,0.7,5,2.1,6.6c1.4,1.6,3.3,2.4,5.8,2.4S236.6,82,237.9,80.5z"/>
		<path class="st2" d="M258.1,38h7.2v51.1h-7.2L258.1,38L258.1,38z M261.8,62.5h16.3c1.5,0,2.9-0.4,4.1-1.1c1.2-0.7,2.1-1.8,2.7-3.1
			s1-2.9,1-4.6c0-1.8-0.3-3.3-1-4.6s-1.6-2.4-2.7-3.1s-2.5-1.1-4.1-1.1h-16.3V38h16.1c3,0,5.7,0.7,8.1,2s4.1,3.1,5.4,5.5
			s1.9,5.1,1.9,8.2c0,3.1-0.6,5.9-1.9,8.2c-1.3,2.3-3.1,4.2-5.4,5.5s-5,1.9-8.1,1.9h-16.1V62.5z"/>
		<path class="st2" d="M309.4,79.7c0,0.9,0.2,1.6,0.6,2.1s0.9,0.7,1.6,0.7h3.4v6.8h-4.2c-2.7,0-4.8-0.8-6.3-2.5s-2.2-4.1-2.2-7.1V38
			h7.2v41.7H309.4z"/>
		<path class="st2" d="M324.3,86.8c-2.2-1.9-3.3-4.7-3.3-8.5c0-3.6,1-6.3,3.1-8.1c2-1.8,5.1-2.7,9.2-2.7h10.4l0.5,5.8h-10.8
			c-1.9,0-3.3,0.4-4.2,1.2c-0.9,0.8-1.4,2.1-1.4,3.8c0,1.9,0.6,3.2,1.8,4.1c1.2,0.9,3.1,1.3,5.6,1.3c2.7,0,4.8-0.3,6.1-0.9
			c1.3-0.6,2-1.5,2-2.7l0.7,5.1c-0.6,1-1.4,1.8-2.3,2.4s-2,1.1-3.2,1.4s-2.6,0.5-4.1,0.5C329.9,89.6,326.5,88.7,324.3,86.8z
			 M343.3,66c0-2.4-0.6-4.2-1.9-5.6c-1.3-1.3-3.1-2-5.4-2c-1.5,0-2.9,0.2-4.3,0.7c-1.4,0.4-2.6,1.1-3.7,1.9l-5.2-3.6
			c1.4-1.7,3.2-3,5.5-3.9s4.8-1.4,7.5-1.4c3,0,5.6,0.5,7.8,1.6c2.2,1.1,3.8,2.6,4.9,4.6s1.7,4.5,1.7,7.3V89h-6.8V66H343.3z"/>
		<path class="st2" d="M356.1,52.6h7.3l11.2,31.7l-4,7.8L356.1,52.6z M388.4,52.6l-15.5,45c-0.6,1.7-1.3,3-2.2,4s-2,1.7-3.4,2.1
			s-3,0.6-4.9,0.6H361v-6.9h1.4c1.3,0,2.4-0.3,3.2-0.8s1.5-1.5,2.1-2.8l13.5-41.2L388.4,52.6L388.4,52.6z"/>
		<path class="st2" d="M403.9,89.6c0,0-1.2-0.6-3.6-1.9s-4.2-3.1-5.5-5.6c-1.3-2.4-1.9-5.4-1.9-8.9v-4.1c0-3.6,0.6-6.7,1.8-9.2
			c1.2-2.6,3-4.5,5.3-5.8s5.1-2,8.3-2c3,0,5.6,0.8,7.8,2.3c2.2,1.5,3.8,3.7,4.9,6.6s1.7,6.3,1.7,10.4v2.4h-24.6V68h17.8
			c-0.2-3-1-5.3-2.3-6.9s-3.1-2.5-5.3-2.5c-2.7,0-4.8,0.9-6.3,2.7s-2.2,4.3-2.2,7.6v4.6c0,3,0.8,5.3,2.4,7s3.9,2.4,6.8,2.4
			c1.5,0,2.9-0.3,4.3-0.9s2.7-1.4,3.8-2.5l4.7,4.7c-1.8,1.7-3.8,3.1-6.1,4s-4.5,1.4-6.8,1.4C405.6,89.6,403.9,89.6,403.9,89.6z"/>
		<path class="st2" d="M432.6,52.6h7.2v36.5h-7.2V52.6z M450.3,59.5c-1-0.4-2.1-0.6-3.3-0.6c-2.3,0-4,0.6-5.3,1.9
			c-1.3,1.3-1.9,3-1.9,5.2l-0.7-7c1.1-2.2,2.6-3.9,4.4-5.1c1.8-1.2,3.8-1.8,5.9-1.8c1.7,0,3.2,0.2,4.5,0.7s2.5,1.2,3.5,2.1l-4.7,6.3
			C452.1,60.5,451.3,59.9,450.3,59.5z"/>
		<path class="st2" d="M473,89.6c0,0-0.9-0.2-2.8-0.6s-3.7-1.1-5.3-1.9s-3.2-1.9-4.5-3.2l4.3-5.2c2,1.5,3.9,2.6,5.9,3.4
			c1.9,0.8,3.9,1.1,5.8,1.1c2.8,0,5-0.4,6.4-1.3s2.1-2.2,2.1-4c0-1.2-0.4-2.1-1.2-2.6c-0.8-0.6-1.7-1-2.9-1.2
			c-1.1-0.2-2.8-0.4-4.9-0.5c-0.2,0-0.4,0-0.6,0s-0.4,0-0.6-0.1c-0.1,0-0.2,0-0.3,0c-0.1,0-0.2,0-0.3,0c-2.4-0.2-4.4-0.5-6-1
			s-3-1.4-4.1-2.8s-1.6-3.4-1.6-5.9c0-2.6,0.5-4.7,1.6-6.4s2.6-3,4.7-3.8c2.1-0.9,4.7-1.3,7.8-1.3c1.9,0,3.7,0.2,5.4,0.5
			s3.4,0.9,4.9,1.6c1.6,0.7,3.1,1.6,4.5,2.6l-4.3,5.2c-1.8-1.2-3.6-2.1-5.4-2.6c-1.8-0.6-3.5-0.9-5.2-0.9c-2.4,0-4.3,0.4-5.5,1.2
			s-1.8,2.1-1.8,3.7c0,1,0.3,1.7,1,2.2s1.6,0.8,2.6,1c1.1,0.2,2.6,0.3,4.5,0.4c0.1,0,0.3,0,0.4,0s0.3,0,0.5,0c0.1,0,0.1,0,0.2,0
			s0.1,0,0.2,0c2.6,0.2,4.7,0.5,6.5,1s3.3,1.5,4.5,3.1c1.2,1.5,1.8,3.7,1.8,6.6c0,2.6-0.6,4.8-1.7,6.5s-2.8,3-5.1,3.9
			c-2.3,0.9-5.1,1.3-8.5,1.3C474.1,89.6,473,89.6,473,89.6z"/>
	</g>
</g>
</svg>
