<?xml version="1.0" encoding="utf-8"?>
<!-- Generator: Adobe Illustrator 22.0.1, SVG Export Plug-In . SVG Version: 6.00 Build 0)  -->
<svg version="1.1" id="Слой_1" xmlns="http://www.w3.org/2000/svg" xmlns:xlink="http://www.w3.org/1999/xlink" x="0px" y="0px"
	 viewBox="0 0 478.7 102.2" style="enable-background:new 0 0 478.7 102.2;" xml:space="preserve">
<style type="text/css">
	.st0{fill:url(#SVGID_1_);}
	.st1{enable-background:new    ;}
	.st2{fill:#FFFFFF;}
	.st3{fill:url(#SVGID_2_);}
	.st4{fill:none;}
	.st5{fill:url(#SVGID_3_);}
	.st6{fill:url(#SVGID_4_);}
	.st7{fill:currentColor;}
</style>
<g>
	<g>
		
			<radialGradient id="SVGID_1_" cx="51.1" cy="566.9" r="51.1" gradientTransform="matrix(1 0 0 -1 0 618)" gradientUnits="userSpaceOnUse">
			<stop  offset="0" style="stop-color:#FF001E"/>
			<stop  offset="1" style="stop-color:#FF001E"/>
		</radialGradient>
		<path class="st0" d="M82.2,102.2H20c-11,0-20-9-20-20V20C0,9,9,0,20,0h62.2c11,0,20,9,20,20v62.2
			C102.2,93.2,93.2,102.2,82.2,102.2z"/>
		<g class="st1">
			<path class="st2" d="M15.4,72.9V29.2H27c1,0,2,0,3.1,0.1c1,0.1,2,0.2,3.1,0.3c1,0.2,2,0.3,2.9,0.5s1.8,0.4,2.6,0.7
				c2.3,0.8,4.4,1.7,6.2,3c1.8,1.3,3.3,2.7,4.5,4.5c1.2,1.7,2.1,3.7,2.7,5.8c0.6,2.1,0.9,4.4,0.9,6.9c0,2.4-0.3,4.6-0.8,6.6
				s-1.3,3.9-2.4,5.6s-2.4,3.2-4,4.5s-3.6,2.4-5.8,3.1c-1.9,0.7-3.9,1.2-6.3,1.5s-5,0.5-7.9,0.5L15.4,72.9L15.4,72.9z M26.7,66.2
				c4.7,0,8.3-0.7,11-2c2.3-1.2,4.1-2.8,5.3-5c1.2-2.2,1.8-5,1.8-8.4c0-1.8-0.2-3.4-0.6-4.8s-0.9-2.7-1.7-3.8
				c-0.8-1.1-1.6-2.1-2.7-2.9c-1-0.8-2.2-1.4-3.6-2c-1.3-0.5-2.6-0.9-4.2-1C30.5,36,28.8,36,26.9,36h-3.5v30.3L26.7,66.2L26.7,66.2z
				"/>
			<path class="st2" d="M84.2,50.9c0,1.5-0.3,3.1-0.9,4.3c-0.6,1.3-1.5,2.6-2.6,3.9c-1.1,1.3-2.5,2.5-4,3.7s-3.2,2.4-5,3.7v0.2
				c3-0.2,5.3-0.3,6.7-0.3H87v6.5H59.2v-4.8c2.3-1.5,4.4-3.1,6.5-4.6c2-1.5,3.9-3,5.4-4.3c1.5-1.4,2.8-2.7,3.7-4s1.4-2.6,1.4-3.8
				c0-0.8-0.2-1.4-0.4-2c-0.3-0.5-0.7-0.9-1.2-1.3c-0.5-0.3-1.1-0.6-1.8-0.8c-0.7-0.2-1.4-0.3-2.2-0.3c-1.5,0-3.3,0.3-5.2,0.8
				s-3.8,1.3-5.9,2.2v-6.5c0.7-0.3,1.4-0.8,2.4-1.1c0.9-0.3,1.9-0.7,2.9-1s2.1-0.5,3.3-0.7c1.2-0.2,2.4-0.3,3.6-0.3
				c1.9,0,3.6,0.3,5.1,0.7c1.5,0.4,2.9,1.1,4,2c1.1,0.9,2,2,2.6,3.2C84.1,47.8,84.2,49.3,84.2,50.9z"/>
		</g>
	</g>
	
		<radialGradient id="SVGID_2_" cx="-10.3" cy="-40" r="61.4" gradientTransform="matrix(1 0 0 -1 0 -211.5)" gradientUnits="userSpaceOnUse">
		<stop  offset="0" style="stop-color:#D40005"/>
		<stop  offset="0.1058" style="stop-color:#DD000A"/>
		<stop  offset="0.3917" style="stop-color:#F00015"/>
		<stop  offset="0.6862" style="stop-color:#FB001C"/>
		<stop  offset="1" style="stop-color:#FF001E"/>
	</radialGradient>
	<circle class="st3" cx="-10.3" cy="-171.5" r="61.4"/>
	<polygon class="st4" points="222.4,-48.2 219.6,-48.2 219.6,-48.2 	"/>
	<g>
		<path class="st7" d="M129.7,25h7.1v51.1h-7.1V25z M133.9,69.5h13.9c3.6,0,6.3-0.7,7.9-2.1c1.7-1.4,2.5-3.3,2.5-5.8v-0.1
			c0-1.7-0.3-3.2-0.9-4.5c-0.6-1.2-1.5-2.2-2.8-2.9s-2.9-1-5-1h-15.6v-6.5h15.6c2.6,0,4.6-0.6,6-1.9c1.3-1.2,2-3.1,2-5.5
			c0-2.6-0.8-4.5-2.3-5.7s-3.8-1.9-6.8-1.9h-14.6V25h15.9c3.3,0,6.1,0.6,8.3,1.7c2.2,1.1,3.9,2.7,5,4.8s1.7,4.5,1.7,7.4
			c0,1.8-0.3,3.4-1,4.9s-1.7,2.8-3.1,3.9s-3.1,1.8-5.2,2.2c2.1,0.3,3.8,1,5.3,2.2s2.6,2.6,3.4,4.3c0.8,1.7,1.2,3.6,1.2,5.6v0.1
			c0,2.8-0.6,5.2-1.8,7.3c-1.2,2.1-3,3.7-5.2,4.9c-2.3,1.1-4.9,1.7-7.9,1.7h-16.5V69.5L133.9,69.5z"/>
		<path class="st7" d="M175.5,39.6h7.2v36.5h-7.2V39.6z M193.2,46.5c-1-0.4-2.1-0.6-3.3-0.6c-2.3,0-4,0.6-5.3,1.9
			c-1.3,1.3-1.9,3-1.9,5.2l-0.7-7c1.1-2.2,2.6-3.9,4.4-5.1c1.8-1.2,3.8-1.8,5.9-1.8c1.7,0,3.2,0.2,4.5,0.7s2.5,1.2,3.5,2.1l-4.7,6.3
			C194.9,47.5,194.1,46.9,193.2,46.5z"/>
		<path class="st7" d="M211.4,74.8c-2.3-1.2-4-3.1-5.2-5.4c-1.2-2.4-1.8-5.2-1.8-8.6v-5.9c0-3.3,0.6-6.1,1.8-8.5
			c1.2-2.4,2.9-4.1,5.2-5.4c2.3-1.3,5-1.8,8.1-1.8s5.9,0.6,8.1,1.8c2.2,1.2,4,3,5.2,5.4c1.2,2.4,1.8,5.2,1.8,8.5v6
			c0,3.3-0.6,6.2-1.8,8.5c-1.2,2.3-2.9,4.2-5.2,5.4c-2.3,1.2-5,1.9-8.1,1.9S213.6,76,211.4,74.8z M225.3,67.5
			c1.4-1.6,2.1-3.8,2.1-6.6v-6c0-2.8-0.7-5-2.1-6.6S222,46,219.5,46s-4.4,0.8-5.8,2.3s-2.1,3.7-2.1,6.6v6c0,2.8,0.7,5,2.1,6.6
			s3.3,2.4,5.8,2.4S224,69,225.3,67.5z"/>
		<path class="st7" d="M245.5,25h7.2v51.1h-7.2V25L245.5,25z M249.2,49.5h16.3c1.5,0,2.9-0.4,4.1-1.1s2.1-1.8,2.7-3.1
			c0.6-1.3,1-2.9,1-4.6c0-1.8-0.3-3.3-1-4.6c-0.7-1.3-1.6-2.4-2.7-3.1c-1.1-0.7-2.5-1.1-4.1-1.1h-16.3V25h16.1c3,0,5.7,0.7,8.1,2
			c2.4,1.3,4.1,3.1,5.4,5.5s1.9,5.1,1.9,8.2s-0.6,5.9-1.9,8.2s-3.1,4.2-5.4,5.5s-5,1.9-8.1,1.9h-16.1
			C249.2,56.3,249.2,49.5,249.2,49.5z"/>
		<path class="st7" d="M296.8,66.7c0,0.9,0.2,1.6,0.6,2.1c0.4,0.5,0.9,0.7,1.6,0.7h3.4v6.8h-4.2c-2.7,0-4.8-0.8-6.3-2.5
			s-2.2-4.1-2.2-7.1V25h7.2v41.7H296.8z"/>
		<path class="st7" d="M311.7,73.8c-2.2-1.9-3.3-4.7-3.3-8.5c0-3.6,1-6.3,3.1-8.1c2-1.8,5.1-2.7,9.2-2.7h10.4l0.5,5.8h-10.8
			c-1.9,0-3.3,0.4-4.2,1.2c-0.9,0.8-1.4,2.1-1.4,3.8c0,1.9,0.6,3.2,1.8,4.1c1.2,0.9,3.1,1.3,5.6,1.3c2.7,0,4.8-0.3,6.1-0.9
			c1.3-0.6,2-1.5,2-2.7l0.7,5.1c-0.6,1-1.4,1.8-2.3,2.4c-0.9,0.6-2,1.1-3.2,1.4c-1.2,0.3-2.6,0.5-4.1,0.5
			C317.3,76.6,313.9,75.7,311.7,73.8z M330.7,53c0-2.4-0.6-4.2-1.9-5.6c-1.3-1.3-3.1-2-5.4-2c-1.5,0-2.9,0.2-4.3,0.7
			c-1.4,0.4-2.6,1.1-3.7,1.9l-5.2-3.6c1.4-1.7,3.2-3,5.5-3.9c2.3-0.9,4.8-1.4,7.5-1.4c3,0,5.6,0.5,7.8,1.6c2.2,1.1,3.8,2.6,4.9,4.6
			c1.1,2,1.7,4.5,1.7,7.3V76h-6.8V53H330.7z"/>
		<path class="st7" d="M343.5,39.6h7.3L362,71.3l-4,7.8L343.5,39.6z M375.8,39.6l-15.5,45c-0.6,1.7-1.3,3-2.2,4s-2,1.7-3.4,2.1
			s-3,0.6-4.9,0.6h-1.4v-6.9h1.4c1.3,0,2.4-0.3,3.2-0.8c0.8-0.5,1.5-1.5,2.1-2.8l13.5-41.2L375.8,39.6L375.8,39.6z"/>
		<path class="st7" d="M391.3,76.6c0,0-1.2-0.6-3.6-1.9s-4.2-3.1-5.5-5.6c-1.3-2.4-1.9-5.4-1.9-8.9v-4.1c0-3.6,0.6-6.7,1.8-9.2
			c1.2-2.6,3-4.5,5.3-5.8s5.1-2,8.3-2c3,0,5.6,0.8,7.8,2.3c2.2,1.5,3.8,3.7,4.9,6.6s1.7,6.3,1.7,10.4v2.4h-24.6V55h17.8
			c-0.2-3-1-5.3-2.3-6.9s-3.1-2.5-5.3-2.5c-2.7,0-4.8,0.9-6.3,2.7c-1.5,1.8-2.2,4.3-2.2,7.6v4.6c0,3,0.8,5.3,2.4,7s3.9,2.4,6.8,2.4
			c1.5,0,2.9-0.3,4.3-0.9s2.7-1.4,3.8-2.5l4.7,4.7c-1.8,1.7-3.8,3.1-6.1,4s-4.5,1.4-6.8,1.4C393,76.6,391.3,76.6,391.3,76.6z"/>
		<path class="st7" d="M420,39.6h7.2v36.5H420V39.6z M437.7,46.5c-1-0.4-2.1-0.6-3.3-0.6c-2.3,0-4,0.6-5.3,1.9s-1.9,3-1.9,5.2
			l-0.7-7c1.1-2.2,2.6-3.9,4.4-5.1s3.8-1.8,5.9-1.8c1.7,0,3.2,0.2,4.5,0.7s2.5,1.2,3.5,2.1l-4.7,6.3
			C439.5,47.5,438.7,46.9,437.7,46.5z"/>
		<path class="st7" d="M460.4,76.6c0,0-0.9-0.2-2.8-0.6s-3.7-1.1-5.3-1.9s-3.2-1.9-4.5-3.2l4.3-5.2c2,1.5,3.9,2.6,5.9,3.4
			c1.9,0.8,3.9,1.1,5.8,1.1c2.8,0,5-0.4,6.4-1.3s2.1-2.2,2.1-4c0-1.2-0.4-2.1-1.2-2.6c-0.8-0.6-1.7-1-2.9-1.2
			c-1.1-0.2-2.8-0.4-4.9-0.5c-0.2,0-0.4,0-0.6,0s-0.4,0-0.6-0.1c-0.1,0-0.2,0-0.3,0c-0.1,0-0.2,0-0.3,0c-2.4-0.2-4.4-0.5-6-1
			s-3-1.4-4.1-2.8s-1.6-3.4-1.6-5.9c0-2.6,0.5-4.7,1.6-6.4s2.6-3,4.7-3.8c2.1-0.9,4.7-1.3,7.8-1.3c1.9,0,3.7,0.2,5.4,0.5
			s3.4,0.9,4.9,1.6c1.6,0.7,3.1,1.6,4.5,2.6l-4.3,5.2c-1.8-1.2-3.6-2.1-5.4-2.6c-1.8-0.6-3.5-0.9-5.2-0.9c-2.4,0-4.3,0.4-5.5,1.2
			s-1.8,2.1-1.8,3.7c0,1,0.3,1.7,1,2.2s1.6,0.8,2.6,1c1.1,0.2,2.6,0.3,4.5,0.4c0.1,0,0.3,0,0.4,0s0.3,0,0.5,0c0.1,0,0.1,0,0.2,0
			s0.1,0,0.2,0c2.6,0.2,4.7,0.5,6.5,1s3.3,1.5,4.5,3.1c1.2,1.5,1.8,3.7,1.8,6.6c0,2.6-0.6,4.8-1.7,6.5s-2.8,3-5.1,3.9
			c-2.3,0.9-5.1,1.3-8.5,1.3C461.5,76.6,460.4,76.6,460.4,76.6z"/>
	</g>
	<g>
		
			<radialGradient id="SVGID_3_" cx="-277.5" cy="-417.4" r="180.9" gradientTransform="matrix(1 0 0 -1 0 -211.5)" gradientUnits="userSpaceOnUse">
			<stop  offset="0" style="stop-color:#FF001E"/>
			<stop  offset="1" style="stop-color:#FF001E"/>
		</radialGradient>
		<circle class="st5" cx="-277.5" cy="205.9" r="180.9"/>
		<g class="st7">
			<path class="st7" d="M-382.8,270.2V141.5h34.1c3,0,6,0,9.3,0.3c3,0.3,6,0.5,9,0.8c3,0.5,5.8,0.8,8.5,1.5c2.8,0.5,5.3,1.3,7.5,2
				c6.8,2.3,13,5,18.3,8.8c5.3,3.8,9.8,8,13.3,13.3c3.5,5,6.3,10.8,8,17s2.8,13,2.8,20.3c0,7-0.8,13.5-2.3,19.5s-3.8,11.5-7,16.5
				c-3.3,5-7,9.5-11.8,13.3s-10.5,7-17,9.3c-5.5,2-11.5,3.5-18.5,4.5s-14.8,1.5-23.3,1.5L-382.8,270.2L-382.8,270.2z M-349.5,250.4
				c13.8,0,24.5-2,32.3-5.8c6.8-3.5,12-8.3,15.5-14.8s5.3-14.8,5.3-24.8c0-5.3-0.5-10-1.8-14.3s-2.8-8-5-11.3
				c-2.2-3.3-4.8-6.3-8-8.5c-3-2.3-6.5-4.3-10.5-5.8c-3.8-1.5-7.8-2.5-12.3-3c-4.5-0.8-9.5-1-15-1h-10.3v89.2L-349.5,250.4
				L-349.5,250.4z"/>
			<path class="st7" d="M-180.2,205.4c0,4.5-1,9-2.8,12.8s-4.5,7.8-7.8,11.5s-7.3,7.3-11.8,10.8s-9.5,7-14.8,10.8v0.5
				c8.8-0.5,15.5-0.8,19.8-0.8h25.3v19.3h-81.9v-14c6.8-4.5,13-9.3,19.3-13.5c6-4.5,11.5-8.8,16-12.8s8.3-8,11-11.8
				c2.8-3.8,4-7.5,4-11.3c0-2.3-0.5-4.3-1.3-5.8s-2-2.8-3.5-3.8s-3.3-1.8-5.3-2.3s-4.3-0.8-6.5-0.8c-4.5,0-9.8,0.8-15.3,2.3
				s-11.3,3.8-17.3,6.5v-19.2c2-1,4.3-2.3,7-3.3c2.5-1,5.5-2,8.5-3c3-0.8,6.3-1.5,9.8-2s7-0.8,10.5-0.8c5.5,0,10.5,0.8,15,2
				s8.5,3.3,11.8,6c3.3,2.5,5.8,5.8,7.8,9.5C-180.4,196.1-180.2,200.6-180.2,205.4z"/>
		</g>
	</g>
	<g>
		
			<radialGradient id="SVGID_4_" cx="273.6" cy="310.3" r="146.4" gradientTransform="matrix(1 0 0 -1 0 618)" gradientUnits="userSpaceOnUse">
			<stop  offset="0" style="stop-color:#FF001E"/>
			<stop  offset="1" style="stop-color:#FF001E"/>
		</radialGradient>
		<path class="st6" d="M350,454.1H197.2c-38.5,0-70-31.5-70-70V231.3c0-38.5,31.5-70,70-70H350c38.5,0,70,31.5,70,70v152.8
			C420,422.6,388.5,454.1,350,454.1z"/>
		<g class="st1">
			<path class="st7" d="M171.2,370.3V245.1h33.1c2.9,0,5.8,0,9,0.2c2.9,0.2,5.8,0.5,8.8,0.7c2.9,0.5,5.6,0.7,8.3,1.5
				c2.7,0.5,5.1,1.2,7.3,1.9c6.6,2.2,12.7,4.9,17.8,8.5c5.1,3.7,9.5,7.8,12.9,12.9c3.4,4.9,6.1,10.5,7.8,16.6
				c1.7,6.1,2.7,12.7,2.7,19.7c0,6.8-0.7,13.2-2.2,19c-1.5,5.8-3.7,11.2-6.8,16.1c-3.2,4.9-6.8,9.3-11.5,12.9
				c-4.7,3.6-10.2,6.8-16.6,9c-5.4,1.9-11.2,3.4-18,4.4s-14.4,1.5-22.7,1.5L171.2,370.3L171.2,370.3z M203.6,351
				c13.4,0,23.9-1.9,31.4-5.6c6.6-3.4,11.7-8,15.1-14.4c3.4-6.3,5.1-14.4,5.1-24.1c0-5.1-0.5-9.7-1.7-13.9c-1.2-4.1-2.7-7.8-4.9-11
				c-2.2-3.2-4.6-6.1-7.8-8.3c-2.9-2.2-6.3-4.1-10.2-5.6c-3.7-1.5-7.6-2.4-11.9-2.9c-4.4-0.7-9.3-1-14.6-1h-10V351H203.6L203.6,351z
				"/>
			<path class="st7" d="M368.3,307.2c0,4.4-1,8.8-2.7,12.4c-1.7,3.7-4.4,7.6-7.6,11.2c-3.2,3.7-7.1,7.1-11.5,10.5
				s-9.3,6.8-14.4,10.5v0.5c8.5-0.5,15.1-0.7,19.2-0.7h24.6v18.8h-79.5v-13.6c6.6-4.4,12.7-9,18.8-13.2c5.8-4.4,11.2-8.5,15.6-12.4
				c4.4-3.9,8-7.8,10.7-11.5c2.7-3.7,3.9-7.3,3.9-11c0-2.2-0.5-4.1-1.2-5.6c-0.7-1.5-1.9-2.7-3.4-3.7s-3.2-1.7-5.1-2.2
				s-4.1-0.7-6.3-0.7c-4.4,0-9.5,0.7-14.9,2.2s-11,3.7-16.8,6.3v-18.8c1.9-1,4.1-2.2,6.8-3.2c2.4-1,5.4-1.9,8.3-2.9
				c2.9-0.7,6.1-1.5,9.5-1.9c3.4-0.5,6.8-0.7,10.2-0.7c5.4,0,10.2,0.7,14.6,1.9c4.4,1.2,8.3,3.2,11.5,5.8c3.2,2.4,5.6,5.6,7.6,9.3
				C368,298.2,368.3,302.6,368.3,307.2z"/>
		</g>
	</g>
</g>
</svg>
